<?xml version="1.0" encoding="utf-8"?>
<!-- Generator: Adobe Illustrator 26.0.1, SVG Export Plug-In . SVG Version: 6.00 Build 0)  -->
<svg version="1.1" id="图层_1" xmlns="http://www.w3.org/2000/svg" xmlns:xlink="http://www.w3.org/1999/xlink" x="0px" y="0px"
	 viewBox="0 0 50 50" style="enable-background:new 0 0 50 50;" xml:space="preserve">
<style type="text/css">
	.st0{fill:#FFFFFF;}
	.st1{fill:#3F51B5;}
	.st2{fill:#008000;}
	.st3{fill:#FF9800;}
	.st4{fill:#E91E63;}
	.st5{fill:#F6B4B1;}
	.st6{fill:#C1706C;}
	.st7{fill:#B8588B;}
	.st8{fill:#901A59;}
	.st9{fill:#D1B1F6;}
	.st10{fill:#936CC1;}
	.st11{fill:#B1C9F6;}
	.st12{fill:#6C8AC1;}
</style>
<g>
	<circle class="st0" cx="25" cy="-30" r="20"/>
	<path class="st1" d="M25-45c8.3,0,15,6.7,15,15s-6.7,15-15,15s-15-6.7-15-15S16.7-45,25-45 M25-55C11.2-55,0-43.8,0-30S11.2-5,25-5
		s25-11.2,25-25S38.8-55,25-55L25-55z"/>
</g>
<g>
	<circle class="st0" cx="-28" cy="-30" r="20"/>
	<path class="st2" d="M-28-45c8.3,0,15,6.7,15,15s-6.7,15-15,15s-15-6.7-15-15S-36.3-45-28-45 M-28-55c-13.8,0-25,11.2-25,25
		S-41.8-5-28-5S-3-16.2-3-30S-14.2-55-28-55L-28-55z"/>
</g>
<g>
	<circle class="st0" cx="-81" cy="-30" r="20"/>
	<path class="st3" d="M-81-45c8.3,0,15,6.7,15,15s-6.7,15-15,15s-15-6.7-15-15S-89.3-45-81-45 M-81-55c-13.8,0-25,11.2-25,25
		S-94.8-5-81-5s25-11.2,25-25S-67.2-55-81-55L-81-55z"/>
</g>
<g>
	<circle class="st0" cx="-134" cy="-30" r="20"/>
	<path class="st4" d="M-134-45c8.3,0,15,6.7,15,15s-6.7,15-15,15s-15-6.7-15-15S-142.3-45-134-45 M-134-55c-13.8,0-25,11.2-25,25
		s11.2,25,25,25s25-11.2,25-25S-120.2-55-134-55L-134-55z"/>
</g>
<g>
	<rect x="12.3" y="12.3" transform="matrix(0.7071 -0.7071 0.7071 0.7071 -10.3553 25)" class="st5" width="25.4" height="25.4"/>
	<path class="st6" d="M25,14.1L35.9,25L25,35.9L14.1,25L25,14.1 M25,0L0,25l25,25l25-25L25,0L25,0z"/>
</g>
<g>
	
		<rect x="-40.7" y="12.3" transform="matrix(0.7071 -0.7071 0.7071 0.7071 -25.8787 -12.4767)" class="st7" width="25.4" height="25.4"/>
	<path class="st8" d="M-28,14.1L-17.1,25L-28,35.9L-38.9,25L-28,14.1 M-28,0l-25,25l25,25l25-25L-28,0L-28,0z"/>
</g>
<g>
	
		<rect x="-93.7" y="12.3" transform="matrix(0.7071 -0.7071 0.7071 0.7071 -41.402 -49.9533)" class="st9" width="25.4" height="25.4"/>
	<path class="st10" d="M-81,14.1L-70.1,25L-81,35.9L-91.9,25L-81,14.1 M-81,0l-25,25l25,25l25-25L-81,0L-81,0z"/>
</g>
<g>
	
		<rect x="-146.7" y="12.3" transform="matrix(0.7071 -0.7071 0.7071 0.7071 -56.9254 -87.43)" class="st11" width="25.4" height="25.4"/>
	<path class="st12" d="M-134,14.1l10.9,10.9L-134,35.9L-144.9,25L-134,14.1 M-134,0l-25,25l25,25l25-25L-134,0L-134,0z"/>
</g>
<g>
</g>
<g>
</g>
<g>
</g>
<g>
</g>
<g>
</g>
<g>
</g>
<g>
</g>
<g>
</g>
<g>
</g>
<g>
</g>
<g>
</g>
<g>
</g>
<g>
</g>
<g>
</g>
<g>
</g>
</svg>
